<mxfile host="app.diagrams.net" modified="2023-07-22T02:29:45.486Z" agent="Mozilla/5.0 (Windows NT 10.0; Win64; x64) AppleWebKit/537.36 (KHTML, like Gecko) Chrome/114.0.0.0 Safari/537.36 OPR/100.0.0.0" etag="gS7PenvT7GQYHLV4dER_" version="21.5.2" type="github">
  <diagram id="C5RBs43oDa-KdzZeNtuy" name="Page-1">
    <mxGraphModel dx="2033" dy="1167" grid="1" gridSize="10" guides="1" tooltips="1" connect="1" arrows="1" fold="1" page="1" pageScale="1" pageWidth="827" pageHeight="1169" math="0" shadow="0">
      <root>
        <mxCell id="WIyWlLk6GJQsqaUBKTNV-0" />
        <mxCell id="WIyWlLk6GJQsqaUBKTNV-1" parent="WIyWlLk6GJQsqaUBKTNV-0" />
        <mxCell id="u1ULm7OHZsbA4HWtFEru-7" value="" style="edgeStyle=orthogonalEdgeStyle;rounded=0;orthogonalLoop=1;jettySize=auto;html=1;" edge="1" parent="WIyWlLk6GJQsqaUBKTNV-1" source="u1ULm7OHZsbA4HWtFEru-5" target="u1ULm7OHZsbA4HWtFEru-6">
          <mxGeometry relative="1" as="geometry" />
        </mxCell>
        <mxCell id="u1ULm7OHZsbA4HWtFEru-5" value="assesment" style="html=1;whiteSpace=wrap;" vertex="1" parent="WIyWlLk6GJQsqaUBKTNV-1">
          <mxGeometry x="350" y="160" width="110" height="50" as="geometry" />
        </mxCell>
        <mxCell id="u1ULm7OHZsbA4HWtFEru-6" value="assesment_product" style="html=1;whiteSpace=wrap;" vertex="1" parent="WIyWlLk6GJQsqaUBKTNV-1">
          <mxGeometry x="350" y="250" width="110" height="50" as="geometry" />
        </mxCell>
        <mxCell id="u1ULm7OHZsbA4HWtFEru-15" value="" style="edgeStyle=orthogonalEdgeStyle;rounded=0;orthogonalLoop=1;jettySize=auto;html=1;" edge="1" parent="WIyWlLk6GJQsqaUBKTNV-1" source="u1ULm7OHZsbA4HWtFEru-12" target="u1ULm7OHZsbA4HWtFEru-14">
          <mxGeometry relative="1" as="geometry" />
        </mxCell>
        <mxCell id="u1ULm7OHZsbA4HWtFEru-12" value="ensurance" style="html=1;whiteSpace=wrap;" vertex="1" parent="WIyWlLk6GJQsqaUBKTNV-1">
          <mxGeometry x="670" y="220" width="110" height="50" as="geometry" />
        </mxCell>
        <mxCell id="u1ULm7OHZsbA4HWtFEru-14" value="asociated_ensurance" style="html=1;whiteSpace=wrap;" vertex="1" parent="WIyWlLk6GJQsqaUBKTNV-1">
          <mxGeometry x="670" y="310" width="110" height="50" as="geometry" />
        </mxCell>
        <mxCell id="u1ULm7OHZsbA4HWtFEru-18" value="" style="edgeStyle=orthogonalEdgeStyle;rounded=0;orthogonalLoop=1;jettySize=auto;html=1;" edge="1" parent="WIyWlLk6GJQsqaUBKTNV-1" source="u1ULm7OHZsbA4HWtFEru-16" target="u1ULm7OHZsbA4HWtFEru-17">
          <mxGeometry relative="1" as="geometry" />
        </mxCell>
        <mxCell id="u1ULm7OHZsbA4HWtFEru-27" value="" style="edgeStyle=orthogonalEdgeStyle;rounded=0;orthogonalLoop=1;jettySize=auto;html=1;" edge="1" parent="WIyWlLk6GJQsqaUBKTNV-1" source="u1ULm7OHZsbA4HWtFEru-16">
          <mxGeometry relative="1" as="geometry">
            <mxPoint x="267" y="500" as="targetPoint" />
          </mxGeometry>
        </mxCell>
        <mxCell id="u1ULm7OHZsbA4HWtFEru-30" value="" style="edgeStyle=orthogonalEdgeStyle;rounded=0;orthogonalLoop=1;jettySize=auto;html=1;" edge="1" parent="WIyWlLk6GJQsqaUBKTNV-1" source="u1ULm7OHZsbA4HWtFEru-16" target="u1ULm7OHZsbA4HWtFEru-29">
          <mxGeometry relative="1" as="geometry" />
        </mxCell>
        <mxCell id="u1ULm7OHZsbA4HWtFEru-16" value="solicitation" style="html=1;whiteSpace=wrap;" vertex="1" parent="WIyWlLk6GJQsqaUBKTNV-1">
          <mxGeometry x="352" y="370" width="110" height="50" as="geometry" />
        </mxCell>
        <mxCell id="u1ULm7OHZsbA4HWtFEru-20" value="" style="edgeStyle=orthogonalEdgeStyle;rounded=0;orthogonalLoop=1;jettySize=auto;html=1;" edge="1" parent="WIyWlLk6GJQsqaUBKTNV-1" source="u1ULm7OHZsbA4HWtFEru-17" target="u1ULm7OHZsbA4HWtFEru-19">
          <mxGeometry relative="1" as="geometry" />
        </mxCell>
        <mxCell id="u1ULm7OHZsbA4HWtFEru-17" value="solicitation_client" style="html=1;whiteSpace=wrap;" vertex="1" parent="WIyWlLk6GJQsqaUBKTNV-1">
          <mxGeometry x="352" y="500" width="110" height="50" as="geometry" />
        </mxCell>
        <mxCell id="u1ULm7OHZsbA4HWtFEru-19" value="client" style="html=1;whiteSpace=wrap;" vertex="1" parent="WIyWlLk6GJQsqaUBKTNV-1">
          <mxGeometry x="352" y="630" width="110" height="50" as="geometry" />
        </mxCell>
        <mxCell id="u1ULm7OHZsbA4HWtFEru-23" value="" style="edgeStyle=orthogonalEdgeStyle;rounded=0;orthogonalLoop=1;jettySize=auto;html=1;" edge="1" parent="WIyWlLk6GJQsqaUBKTNV-1" source="u1ULm7OHZsbA4HWtFEru-21" target="u1ULm7OHZsbA4HWtFEru-22">
          <mxGeometry relative="1" as="geometry" />
        </mxCell>
        <mxCell id="u1ULm7OHZsbA4HWtFEru-21" value="mutuo" style="html=1;whiteSpace=wrap;" vertex="1" parent="WIyWlLk6GJQsqaUBKTNV-1">
          <mxGeometry x="359" y="760" width="110" height="50" as="geometry" />
        </mxCell>
        <mxCell id="u1ULm7OHZsbA4HWtFEru-25" value="" style="edgeStyle=orthogonalEdgeStyle;rounded=0;orthogonalLoop=1;jettySize=auto;html=1;" edge="1" parent="WIyWlLk6GJQsqaUBKTNV-1" source="u1ULm7OHZsbA4HWtFEru-22" target="u1ULm7OHZsbA4HWtFEru-24">
          <mxGeometry relative="1" as="geometry" />
        </mxCell>
        <mxCell id="u1ULm7OHZsbA4HWtFEru-22" value="endorsment" style="html=1;whiteSpace=wrap;" vertex="1" parent="WIyWlLk6GJQsqaUBKTNV-1">
          <mxGeometry x="359" y="890" width="110" height="50" as="geometry" />
        </mxCell>
        <mxCell id="u1ULm7OHZsbA4HWtFEru-24" value="develpment table" style="html=1;whiteSpace=wrap;" vertex="1" parent="WIyWlLk6GJQsqaUBKTNV-1">
          <mxGeometry x="359" y="1020" width="110" height="50" as="geometry" />
        </mxCell>
        <mxCell id="u1ULm7OHZsbA4HWtFEru-26" value="factor table" style="html=1;whiteSpace=wrap;" vertex="1" parent="WIyWlLk6GJQsqaUBKTNV-1">
          <mxGeometry x="217" y="500" width="110" height="50" as="geometry" />
        </mxCell>
        <mxCell id="u1ULm7OHZsbA4HWtFEru-32" value="" style="edgeStyle=orthogonalEdgeStyle;rounded=0;orthogonalLoop=1;jettySize=auto;html=1;" edge="1" parent="WIyWlLk6GJQsqaUBKTNV-1" source="u1ULm7OHZsbA4HWtFEru-29" target="u1ULm7OHZsbA4HWtFEru-31">
          <mxGeometry relative="1" as="geometry" />
        </mxCell>
        <mxCell id="u1ULm7OHZsbA4HWtFEru-29" value="tracking" style="html=1;whiteSpace=wrap;" vertex="1" parent="WIyWlLk6GJQsqaUBKTNV-1">
          <mxGeometry x="501" y="500" width="110" height="50" as="geometry" />
        </mxCell>
        <mxCell id="u1ULm7OHZsbA4HWtFEru-31" value="tracking_stage_date" style="html=1;whiteSpace=wrap;" vertex="1" parent="WIyWlLk6GJQsqaUBKTNV-1">
          <mxGeometry x="501" y="630" width="110" height="50" as="geometry" />
        </mxCell>
        <mxCell id="u1ULm7OHZsbA4HWtFEru-33" value="" style="endArrow=none;dashed=1;html=1;rounded=0;" edge="1" parent="WIyWlLk6GJQsqaUBKTNV-1">
          <mxGeometry width="50" height="50" relative="1" as="geometry">
            <mxPoint x="220" y="330" as="sourcePoint" />
            <mxPoint x="590" y="330" as="targetPoint" />
          </mxGeometry>
        </mxCell>
        <mxCell id="u1ULm7OHZsbA4HWtFEru-34" value="" style="endArrow=none;dashed=1;html=1;rounded=0;" edge="1" parent="WIyWlLk6GJQsqaUBKTNV-1">
          <mxGeometry width="50" height="50" relative="1" as="geometry">
            <mxPoint x="222" y="720" as="sourcePoint" />
            <mxPoint x="592" y="720" as="targetPoint" />
          </mxGeometry>
        </mxCell>
      </root>
    </mxGraphModel>
  </diagram>
</mxfile>
